<svg width="32" height="32" viewBox="0 0 32 32" xmlns="http://www.w3.org/2000/svg">
  <!-- Fondo con gradiente para mejor visibilidad -->
  <defs>
    <linearGradient id="bgGradient" x1="0%" y1="0%" x2="100%" y2="100%">
      <stop offset="0%" style="stop-color:#18bc9c;stop-opacity:1" />
      <stop offset="100%" style="stop-color:#16a085;stop-opacity:1" />
    </linearGradient>
  </defs>
  
  <!-- Fondo principal -->
  <rect x="0" y="0" width="32" height="32" rx="6" fill="url(#bgGradient)"/>
  
  <!-- Borde sutil -->
  <rect x="0" y="0" width="32" height="32" rx="6" fill="none" stroke="#ffffff" stroke-width="1" opacity="0.3"/>
  
  <!-- Mapa simplificado con mejor contraste -->
  <rect x="7" y="7" width="18" height="18" rx="2" fill="#ffffff" stroke="#2c3e50" stroke-width="0.5"/>
  
  <!-- Marcadores más grandes y visibles -->
  <circle cx="12" cy="12" r="2.5" fill="#e74c3c"/>
  <circle cx="20" cy="13" r="2.5" fill="#f39c12"/>
  <circle cx="13" cy="20" r="2.5" fill="#3498db"/>
  
  <!-- Línea de conexión simplificada -->
  <path d="M12,12 L13,20 L20,13" stroke="#2c3e50" stroke-width="1.5" fill="none" opacity="0.7" stroke-linecap="round"/>
  
  <!-- Punto central para representar ubicación actual -->
  <circle cx="16" cy="16" r="1" fill="#2c3e50" opacity="0.8"/>
</svg>height="32" viewBox="0 0 32 32" xmlns="http://www.w3.org/2000/svg">
  <!-- Fondo -->
  <rect x="0" y="0" width="32" height="32" rx="4" fill="#18bc9c"/>
  
  <!-- Icono de mapa simplificado */
  <rect x="6" y="6" width="20" height="20" rx="2" fill="#ffffff" opacity="0.9"/>
  
  <!-- Marcadores */
  <circle cx="11" cy="11" r="2" fill="#e74c3c"/>
  <circle cx="21" cy="13" r="2" fill="#f39c12"/>
  <circle cx="13" cy="21" r="2" fill="#3498db"/>
  <circle cx="21" cy="21" r="2" fill="#9b59b6"/>
  
  <!-- Líneas de conexión */
  <path d="M11,11 L13,21 L21,13 L21,21" stroke="#2c3e50" stroke-width="1.2" fill="none" opacity="0.6"/>
</svg>
